<?xml version="1.0" encoding="utf-8"?>
<!-- Generator: Adobe Illustrator 22.0.1, SVG Export Plug-In . SVG Version: 6.00 Build 0)  -->
<svg version="1.1" id="Layer_1" xmlns="http://www.w3.org/2000/svg" xmlns:xlink="http://www.w3.org/1999/xlink" x="0px" y="0px"
	 viewBox="0 0 329.1 84.4" style="enable-background:new 0 0 329.1 84.4;" xml:space="preserve">
<style type="text/css">
	.st0{fill:#DA291C;}
	.st1{fill:#1B1C2E;}
</style>
<path class="st0" d="M109.8,37.3l1.8-4.6h11.1l1.8,4.6h5.4L120,13h-5.6l-9.9,24.3H109.8L109.8,37.3z M116.6,19.7
	c0.2-0.5,0.4-1,0.6-1.9c0.2,0.9,0.3,1.4,0.5,1.9l3.4,8.7h-7.9L116.6,19.7L116.6,19.7z M132.6,13v24.3h10.5c4.2,0,9.6-1.3,9.6-6.8
	c0-3.6-2.3-5.4-4.7-6.1c2.2-0.7,3.7-2.5,3.7-5.3c0-4.2-3.2-6.2-8.4-6.2L132.6,13L132.6,13z M147.4,30c0,2.6-2.1,3.1-4.4,3.1h-5.2
	v-6.3h5.5C145.3,26.8,147.4,27.4,147.4,30L147.4,30z M146.5,20c0,1.9-1.4,2.8-3.4,2.8h-5.3v-5.6h5C145.1,17.3,146.5,18.1,146.5,20
	L146.5,20z M153.8,13v4.7h7.5v19.7h5.2V17.7h7.5V13L153.8,13L153.8,13z M174.9,25.2c0,6.6,4.3,12.7,12.9,12.7
	c8.6,0,12.9-6.1,12.9-12.7s-4.3-12.7-12.9-12.7C179.2,12.5,174.9,18.5,174.9,25.2L174.9,25.2z M195.4,25.2c0,4.3-2.5,7.8-7.6,7.8
	s-7.6-3.5-7.6-7.8s2.5-7.8,7.6-7.8C192.9,17.3,195.4,20.9,195.4,25.2L195.4,25.2z"/>
<path class="st1" d="M204.6,13v24.3h10.5c4.2,0,9.6-1.3,9.6-6.8c0-3.6-2.3-5.4-4.7-6.1c2.2-0.7,3.7-2.5,3.7-5.3
	c0-4.2-3.2-6.2-8.4-6.2L204.6,13L204.6,13z M219.5,30c0,2.6-2.1,3.1-4.4,3.1h-5.2v-6.3h5.5C217.4,26.8,219.5,27.4,219.5,30L219.5,30
	z M218.5,20c0,1.9-1.4,2.8-3.4,2.8h-5.3v-5.6h5C217.1,17.3,218.5,18.1,218.5,20L218.5,20z M237.7,37.3c5.9,0,10.5-1.9,10.5-8.2
	c0-6.3-4.6-8.1-10.5-8.2h-4v-8h-5.2v24.3h9.2V37.3z M233.8,25.6h4.2c2.7,0,4.9,0.7,4.9,3.6s-2.3,3.6-4.9,3.6h-4.2V25.6L233.8,25.6z
	 M255.4,37.3V13h-5.2v24.3H255.4L255.4,37.3z M265.9,37.3v-9.9h3.9l6.6,9.9h5.8l-8.3-12.5l7.9-11.9H276l-6.2,9.7h-3.9v-9.7h-5.2
	v24.3L265.9,37.3L265.9,37.3z M296.5,31.8l8.8-18.8h-5.7l-5.3,12.5L287.9,13h-5.8l9.7,17.2l-0.4,0.9c-0.9,1.8-2.2,2.2-3.8,2.2
	c-1,0-2-0.2-2.8-0.5v4.4c1.2,0.3,2.5,0.6,3.7,0.6C291.6,37.8,294.3,36.5,296.5,31.8L296.5,31.8z M313.1,37.3V17.6h10.8v19.7h5.2V13
	h-21.2v24.3H313.1L313.1,37.3z"/>
<path class="st1" d="M29.1,53.1c0,3.8,3,5.8,6.2,5.8c1.7,0,3.2-0.4,4.8-1.2c-0.5,3.5-2.7,4.6-5.1,4.6c-1.5,0-3.2-0.4-4.4-1.3v3.5
	c1.5,0.7,3.3,1.1,4.9,1.1c4.5,0,8.5-2.8,8.5-9.3c0-5.8-2.3-9.3-8.1-9.3C32.3,47,29.1,49.1,29.1,53.1L29.1,53.1z M36.3,50.2
	c2,0,3.5,1,3.9,4.4c-1.2,0.7-2.4,1.1-3.6,1.1c-1.8,0-3.5-0.6-3.5-2.7C33.1,51,34.6,50.2,36.3,50.2L36.3,50.2z M46.8,48.9v3.7
	c1.9-1.4,4-2.1,5.8-2.1s3,0.7,3,2c0,1.7-1.6,2.4-3.5,3.5c-2.6,1.5-5.9,3.2-5.9,7.5v1.8h13.4v-3.4h-8.9c0-1.2,1.8-2.1,4-3.4
	c2.3-1.4,4.8-3.2,4.8-6.2c0-3.6-2.9-5.3-6.5-5.3C50.8,47,48.7,47.6,46.8,48.9L46.8,48.9z"/>
<path class="st0" d="M27.3,33c-1.2-2-3.3-3.2-5.5-3.2c-2.3,0-4.4,1.2-5.5,3.2c-1,1.6-1.1,3.6-0.5,5.3c0.9,2.6,3.3,4.3,6,4.3
	s5.1-1.7,6-4.2C28.3,36.6,28.2,34.7,27.3,33L27.3,33L27.3,33z M25.7,20c-4.7,0-9.5,0.1-14.2,0.1c-2.8,0-4.7,0.4-5.7,1.6
	c-1,1.1-1.3,2.8-1,5.5l1.5,14.1C6.6,44,7.1,45.9,8,47.4c1,1.8,2.5,3.2,4.6,5.1c9.2,8.2,18.3,16.4,27.5,24.6c2,1.7,4.5,2.5,7,2.4
	s4.9-1.2,6.6-3.2l11.6-13c2.2-2.5,3-5.4,2.6-8.2c-0.4-2.1-1.5-4.2-3.4-6c-1.2-1.1-2.5-2.2-3.7-3.3c-0.5-0.5-0.6-1.1-0.4-1.6
	c0.2-0.4,0.7-0.7,1.3-0.7h2.4c0.5,0,1,0.1,1.4,0.2s0.8,0.4,1.2,0.8l1.3,1.2c3,2.2,4.6,5.4,4.9,8.8c0.4,4.4-1.2,9.1-4.2,12.5
	L57.4,79.6c-2.7,3-6.3,4.6-10,4.8c-3.7,0.2-7.5-1-10.5-3.7C27.7,72.5,18.5,64.3,9.3,56c-2.6-2.3-4.3-4.2-5.6-6.4
	c-1.2-2.2-1.8-4.6-2.2-8.2L0.1,27.7c-0.5-4.5,0.4-7.8,2.7-9.9C4.7,16,7.7,15,11.5,15h5.2c1.5,0,2.8-0.3,3.9-0.8
	c1-0.5,1.9-1.1,2.8-1.9L33.8,3c1.2-1.1,2.4-1.8,3.6-2.3c1.4-0.5,3-0.7,4.9-0.7h18.3c1.6,0,3,0.1,4.3,0.5c1.4,0.4,2.8,1.2,4.1,2.4
	l10.2,9.2c1.2,1.1,2.2,1.8,3.4,2.3c1.1,0.4,2.4,0.7,3.9,0.7h3.7c4.4,0,7.5,1.2,9.5,3.5c2.2,2.7,2.3,6.3,2,9.7
	c-0.1,1-0.2,1.9-0.3,2.9c-0.2,2-0.7,3.5-1.5,4.4c-1.2,1.6-3.2,2.1-6.1,2.1H90c-0.3,2.5-1.5,4.8-3.2,6.5c-2.1,2.1-4.9,3.3-8,3.3
	s-6-1.3-8-3.3c-1.5-1.5-2.6-3.4-3-5.5H33c-0.5,2.2-1.6,4.1-3,5.5c-2.1,2.1-4.9,3.3-8,3.3s-6-1.3-8-3.3c-3.6-3.6-4.3-9.2-1.8-13.7
	c2-3.5,5.8-5.7,9.8-5.7c3,0,6,1.2,8.1,3.4c1.5,1.5,2.5,3.4,2.9,5.5h34.8c0.4-2,1.5-3.9,2.9-5.4c2.1-2.2,5.1-3.5,8.2-3.5
	c3,0,6,1.3,8.1,3.5c1.2,1.3,2.1,2.8,2.7,4.4H94c1.1,0,1.7,0,2.1-0.3c0.3-0.3,0.4-0.8,0.5-1.7c0.1-1,0.2-2,0.3-3
	c0.2-1.8,0.4-4.1-0.6-5.6c-0.8-1.2-2.2-1.8-4.5-1.8c-12.8,0-25.7,0-38.5,0c-1.1,0-2-0.9-2-2v-0.8c0-1.1,0.9-2,2-2
	c7.4,0,14.8,0,22.3,0L66.1,7c-0.9-0.8-1.6-1.3-2.4-1.5c-0.8-0.2-1.7-0.3-2.9-0.3H42.5c-1.2,0-2.1,0.1-2.9,0.3S38.1,6.2,37.2,7
	l-9.3,8.3c2.5,0.1,4.5,0.6,6.4,1.5c2.2,1,4.1,2.5,6.3,4.4l6,5.4c0.5,0.4,0.7,1,0.5,1.5c-0.1,0.6-0.7,1-1.5,1h-2
	c-0.7,0-1.2-0.1-1.7-0.3c-0.4-0.2-0.9-0.5-1.3-0.9l-3.4-3c-2-1.8-3.6-3-5.4-3.7C29.8,20.3,28.1,20,25.7,20L25.7,20L25.7,20z
	 M84.2,33c-1.1-2-3.3-3.2-5.5-3.2c-2.3,0-4.4,1.2-5.5,3.2c-0.9,1.5-1.1,3.2-0.6,4.8c0.7,2.8,3.3,4.8,6.2,4.8c2.9,0,5.4-1.9,6.2-4.7
	C85.2,36.3,85.1,34.5,84.2,33L84.2,33L84.2,33z"/>
</svg>
