<?xml version="1.0" encoding="utf-8"?>
<!-- Generator: Adobe Illustrator 22.0.1, SVG Export Plug-In . SVG Version: 6.00 Build 0)  -->
<svg version="1.1" id="Capa_1" xmlns="http://www.w3.org/2000/svg" xmlns:xlink="http://www.w3.org/1999/xlink" x="0px" y="0px"
	 viewBox="0 0 450 512" style="enable-background:new 0 0 450 512;" xml:space="preserve">
<style type="text/css">
	.st0{fill:#DA291C;}
</style>
<g>
	<g>
		<path class="st0" d="M225,60c-57.9,0-105,47.1-105,105c0,35.9,18.1,69,48.5,88.5c31,19.9,69.1,22,104.4,5.7
			c7.5-3.5,10.8-12.4,7.4-19.9c-3.5-7.5-12.4-10.8-19.9-7.4c-25.9,11.9-53.5,10.5-75.7-3.7C163,214.3,150,190.7,150,165
			c0-41.4,33.6-75,75-75s75,33.6,75,75c0,8.3-6.7,15-15,15c-7.6,0-14.6-5.7-15-14.8c0-0.1,0-0.2,0-0.2c0-24.8-20.2-45-45-45
			s-45,20.2-45,45s20.2,45,45,45c11.5,0,22-4.4,30-11.5c8,7.1,18.5,11.5,30,11.5c24.8,0,45-20.2,45-45C330,107.1,282.9,60,225,60z
			 M239.8,167.4c-1.2,7.1-7.3,12.6-14.8,12.6c-8.3,0-15-6.7-15-15s6.7-15,15-15c7.7,0,14,5.8,14.9,13.3
			C239.7,164.6,239.6,166,239.8,167.4z"/>
	</g>
</g>
<g>
	<g>
		<path class="st0" d="M450,197c0-3.9-1.6-7.8-4.4-10.6L390,130.8V15c0-8.3-6.7-15-15-15H75c-8.3,0-15,6.7-15,15v115.8L4.4,186.4
			c-0.1,0.1-0.1,0.1-0.1,0.2C1.4,189.5,0,193.3,0,197c0,0,0,0,0,0v270c0,24.8,20.2,45,45,45h360c24.8,0,45-20.2,45-45L450,197
			C450,197,450,197,450,197z M390,173.2l23.8,23.8L390,220.8V173.2z M90,137C90,137,90,137,90,137V30h270v107c0,0,0,0,0,0v113.8
			L278.8,332H171.2L90,250.8V137z M60,173.2v47.6L36.2,197L60,173.2z M30,460.8V233.2L143.8,347L30,460.8z M51.2,482l120-120h107.6
			l120,120H51.2z M420,460.8L306.2,347L420,233.2V460.8z"/>
	</g>
</g>
</svg>
