<?xml version="1.0" encoding="utf-8"?>
<!-- Generator: Adobe Illustrator 22.0.1, SVG Export Plug-In . SVG Version: 6.00 Build 0)  -->
<svg version="1.1" id="Capa_1" xmlns="http://www.w3.org/2000/svg" xmlns:xlink="http://www.w3.org/1999/xlink" x="0px" y="0px"
	 viewBox="0 0 360 512" style="enable-background:new 0 0 360 512;" xml:space="preserve">
<style type="text/css">
	.st0{fill:#DA291C;}
</style>
<g>
	<g>
		<path class="st0" d="M315,0H45C20.2,0,0,20.2,0,45v422c0,24.8,20.2,45,45,45h270c24.8,0,45-20.2,45-45V45C360,20.2,339.8,0,315,0z
			 M330,467c0,8.3-6.7,15-15,15H45c-8.3,0-15-6.7-15-15v-45h300V467z M330,392H30V90h300V392z M330,60H30V45c0-8.3,6.7-15,15-15h270
			c8.3,0,15,6.7,15,15V60z"/>
	</g>
</g>
</svg>
